<svg width="97" height="24" viewBox="0 0 97 24" fill="none" xmlns="http://www.w3.org/2000/svg">
<g clip-path="url(#clip0_3302_65041)">
<path d="M46.6599 7.9856e-05C45.1071 7.9856e-05 43.8438 1.21112 43.8438 2.70022C43.8438 4.18931 45.0657 5.40344 46.6217 5.40344C48.1778 5.40344 49.3997 4.2202 49.3997 2.71721C49.4204 2.00356 49.1515 1.32698 48.6392 0.811047C48.1237 0.288939 47.4205 -0.00146484 46.6599 -0.00146484V7.9856e-05Z" fill="#ED1C24"/>
<path d="M44.4287 23.6525H48.7993V6.755L44.4287 7.44703V23.6525Z" fill="#ED1C24"/>
<path d="M34.9097 6.45381C32.8222 6.45381 30.9464 7.0269 29.018 7.95835L28.5264 8.20241L29.7006 10.7465L30.364 10.4422C31.7276 9.85061 33.1834 9.45208 34.4912 9.5046C36.0743 9.56638 36.7251 10.2723 36.7251 11.7444V12.6079H34.1317C29.9695 12.6079 27.3792 14.7504 27.3076 18.073C27.3076 21.235 30.0204 23.9568 33.7944 23.9568C36.8396 23.9568 39.4172 22.9975 41.1578 21.3061V12.2881C41.1578 7.89657 37.9279 6.45227 34.9113 6.45227L34.9097 6.45381ZM36.7155 20.4627C36.286 20.7562 35.4061 21.0095 34.4467 21.0095C32.6902 21.0095 31.8994 19.7012 31.9281 18.175C31.9583 16.9145 32.7697 15.481 34.9638 15.481H36.7171V20.4627H36.7155Z" fill="#ED1C24"/>
<path d="M80.96 20.9802C79.7619 20.9802 78.9521 20.5986 78.4222 20.0441C77.6362 19.2161 77.2862 17.5231 77.3833 15.722H86.8039V15.3003C86.7212 9.31152 84.621 6.58667 80.0149 6.58667C74.8773 6.58667 72.8774 11.176 72.8376 15.4857C72.8058 18.2105 73.8638 20.9601 75.8049 22.5218C76.9855 23.4733 78.6195 24.0001 80.5145 24.0001C81.5518 24.0001 82.629 23.8549 83.6139 23.5552C85.5056 22.9883 86.901 22.0043 86.901 22.0043L85.6663 19.5421C85.4452 19.7043 83.5582 20.9786 80.96 20.9786V20.9802ZM80.0149 9.74404C81.956 9.74404 82.2424 11.7908 82.2424 13.0636H77.5105C77.5869 11.4278 78.287 9.74404 80.0133 9.74404H80.0149Z" fill="#ED1C24"/>
<path d="M52.2968 9.78261L52.292 23.6648H56.7485V10.5982C57.3309 10.0483 58.5639 9.56481 59.7366 9.52001C60.8232 9.4783 61.5265 9.69765 61.5265 9.69765L62.7596 7.01296C62.2807 6.78126 61.1399 6.50012 59.8161 6.50012C57.8973 6.50012 54.9522 7.0454 52.2984 9.78415L52.2968 9.78261Z" fill="#ED1C24"/>
<path d="M96.0669 20.9925C94.2484 20.8565 93.8697 20.0811 93.8697 18.7928V2.073L89.4863 2.79901V18.5148C89.4863 22.2391 91.569 23.8363 95.0566 23.8363C95.8028 23.8363 96.7288 23.6664 96.7288 23.6664V21.0002C96.7288 21.0002 96.3167 21.011 96.0654 20.9925H96.0669Z" fill="#ED1C24"/>
<path d="M68.4169 2.09778L63.9365 2.79598V18.589C63.9365 22.1264 66.0654 23.8008 69.6341 23.8008C70.4917 23.8008 71.2999 23.6433 71.2999 23.6433V21.0142C71.2506 21.0095 70.9197 21.0095 70.6683 21.0003C68.7861 20.9369 68.4169 19.9298 68.4169 18.7666V9.88152H71.2999V6.76277H68.4169V2.09778Z" fill="#ED1C24"/>
<path d="M8.64709 23.1875C10.0106 22.7102 11.0925 22.046 12.1347 21.4049L12.4179 21.235C13.5221 20.56 14.5992 19.7706 15.7082 18.8283C18.1648 16.7445 19.6365 14.7009 20.4814 12.2047C20.8235 11.1898 21.3071 9.21877 20.7137 7.36513C20.2793 6.01661 19.4377 4.90597 18.2125 4.0672C18.0725 3.95289 16.5451 2.76501 13.6637 2.76501C11.0289 2.76501 8.14114 3.75362 5.07835 5.70149L4.98129 5.76019L4.96697 5.771C4.87787 5.82198 4.79037 5.87604 4.69331 5.93937C4.62331 5.99035 4.54694 6.03978 4.45624 6.08921C3.83096 6.50164 3.23272 6.94961 2.67744 7.42692C1.38868 8.64105 -0.0862275 10.6723 0.00287177 12.3978C0.0426482 13.1269 0.354496 13.7262 0.936823 14.1695C1.46028 14.5665 2.1158 14.7689 2.8811 14.7689C4.44988 14.7689 6.16822 13.9394 7.34402 13.2396C7.4172 13.1871 7.49198 13.1392 7.56836 13.0929C7.7736 12.96 7.97726 12.8303 8.1825 12.6959L8.38457 12.563C10.0552 11.4771 11.7847 10.3495 13.7305 9.69454C14.2365 9.52617 14.6788 9.44584 15.0845 9.44584C15.285 9.44584 15.4823 9.46438 15.67 9.50608C16.2635 9.63893 16.6963 9.9664 16.9556 10.4792C17.4059 11.3752 17.2977 12.7839 16.6835 14.0738C15.8466 15.8301 14.4051 17.5648 12.4052 19.2253C11.3853 20.0687 10.445 20.7237 9.6065 21.1655L9.53172 21.2041C9.14032 21.4126 8.6996 21.649 8.23342 21.8189L8.16978 21.8421C8.03135 21.893 7.91521 21.9363 7.80701 21.9718C5.8516 22.48 7.04012 20.8071 7.04012 20.8071C7.47289 20.3097 7.91202 19.9096 8.37661 19.4941C8.64073 19.2516 8.91439 19.0029 9.18964 18.7357L9.2501 18.6754C9.59059 18.3433 10.06 17.8907 10.0313 17.2404C9.98995 16.3754 9.08782 15.8332 8.23819 15.81H8.17614C7.35993 15.81 6.58508 16.278 6.07912 16.6658C5.57317 17.0612 5.0338 17.6513 4.67422 18.2043C4.15394 19.006 3.0593 21.0512 4.1253 22.6839C4.55171 23.3373 5.2645 23.6679 6.24459 23.6679C6.92716 23.6679 7.73542 23.5088 8.64709 23.1875Z" fill="#ED1C24"/>
</g>
<defs>
<clipPath id="clip0_3302_65041">
<rect width="96.73" height="24" fill="white"/>
</clipPath>
</defs>
</svg>
