<svg viewBox="0 0 16 18" fill="none" xmlns="http://www.w3.org/2000/svg">
<path d="M11.9453 9.10858V3.85458C11.9453 2.95209 11.0723 0.913086 7.93482 0.913086C4.79781 0.913086 3.12882 2.8736 3.12882 4.63959L5.75083 4.8741C5.75083 4.8741 6.33482 3.10911 7.69031 3.10911C9.0458 3.10911 8.95281 4.20712 8.95281 4.44461V5.58612C7.21633 5.64461 2.9043 6.14062 2.9043 9.77661C2.9043 13.6866 7.83981 13.8506 9.45832 11.3236C9.52082 11.4261 9.59184 11.5266 9.68081 11.6206C10.2763 12.2466 11.0708 12.9927 11.0708 12.9927L13.0948 10.9926C13.0958 10.9921 11.9453 10.0891 11.9453 9.10858ZM5.94783 9.29307C5.94783 7.61359 7.74732 7.27307 8.95331 7.23309V8.67859C8.95281 11.5421 5.94783 11.1086 5.94783 9.29307Z" fill="#484848"/>
<path d="M13.8451 14.2636C7.25254 17.4011 3.16108 14.7761 0.542041 13.1816C0.38002 13.0811 0.104528 13.2051 0.343551 13.4796C1.21605 14.5376 4.07554 17.0876 7.80803 17.0876C11.543 17.0876 13.765 15.0496 14.043 14.6941C14.319 14.3416 14.1241 14.1471 13.8451 14.2636ZM15.6966 13.2411C15.5195 13.0106 14.6201 12.9676 14.054 13.0371C13.487 13.1046 12.6361 13.4511 12.71 13.6591C12.748 13.7371 12.8255 13.7021 13.215 13.6671C13.6055 13.6282 14.6996 13.4901 14.9275 13.7881C15.1566 14.0881 14.5786 15.5177 14.4731 15.7482C14.3711 15.9787 14.512 16.0382 14.7036 15.8846C14.8926 15.7311 15.2346 15.3337 15.4641 14.7711C15.6921 14.2056 15.8311 13.4166 15.6966 13.2411Z" fill="#F4B459"/>
</svg>
