<svg width="400" height="559" viewBox="0 0 400 559" fill="none" xmlns="http://www.w3.org/2000/svg">
<path d="M61.7816 5.6748H337.926C367.36 5.6748 391.219 29.5085 391.219 58.9064V743.346C391.219 772.744 367.36 796.578 337.926 796.578H61.7816C32.3477 796.578 8.48877 772.744 8.48877 743.346V58.9064C8.48877 29.5085 32.3477 5.6748 61.7816 5.6748Z" fill="#121515" stroke="#363636" stroke-width="2"/>
<path d="M24.7705 71.9054C24.7705 56.2196 24.7705 48.3767 27.4217 42.19C30.9565 33.9412 37.7367 27.3876 46.2706 23.9708C52.6711 21.4082 60.785 21.4082 77.013 21.4082H112.312H156.083H170.235C172.733 21.4082 173.983 21.4082 175.072 21.735C176.61 22.1961 177.954 23.1213 178.908 24.375C179.584 25.2637 179.993 26.4048 180.81 28.6871L182.364 33.0273C182.713 34 182.887 34.4863 183.071 34.9189C185.551 40.744 191.267 44.6783 197.773 45.0378C198.256 45.0645 198.789 45.0645 199.854 45.0645V45.0645V45.0645C200.918 45.0645 201.451 45.0645 201.934 45.0378C208.44 44.6783 214.156 40.744 216.636 34.9189C216.82 34.4863 216.994 34 217.343 33.0273L218.897 28.6871C219.714 26.4048 220.123 25.2637 220.799 24.375C221.753 23.1213 223.097 22.1961 224.635 21.735C225.725 21.4082 226.974 21.4082 229.472 21.4082H243.624H287.395H322.694C338.922 21.4082 347.036 21.4082 353.436 23.9708C361.97 27.3876 368.75 33.9412 372.285 42.19C374.937 48.3767 374.937 56.2196 374.937 71.9054V698.798C374.937 714.484 374.937 722.327 372.285 728.514C368.75 736.763 361.97 743.316 353.436 746.733C347.036 749.296 338.922 749.296 322.694 749.296H77.013C60.785 749.296 52.6711 749.296 46.2706 746.733C37.7367 743.316 30.9565 736.763 27.4217 728.514C24.7705 722.327 24.7705 714.484 24.7705 698.798V71.9054Z" fill="white"/>
</svg>
