<svg width="86" height="89" viewBox="0 0 86 89" fill="none" xmlns="http://www.w3.org/2000/svg">
<path d="M58.3665 67.0106L46.0637 79.4956L46.0646 43.399C46.0646 41.7701 44.7077 40.6852 43.3509 40.6852C41.9939 40.6852 40.6371 42.0421 40.6371 43.399V79.7666L28.3342 67.0106C27.2484 65.9247 25.3485 66.1966 24.5344 67.2816C23.4485 68.3675 23.7205 70.2673 24.8055 71.0814L41.722 87.6372C41.722 87.6372 41.993 87.9082 42.2649 87.9082H42.5359H42.807H43.3499H43.6209H43.892H44.4349C44.7059 87.9082 44.7059 87.6372 44.9779 87.6372H45.2489H45.5199L62.1645 71.3524C63.2504 70.2665 63.5214 68.6386 62.4355 67.5526C61.3524 66.1966 59.4523 65.9256 58.3665 67.0106Z" fill="#B5C9FD" stroke="#B5C9FD"/>
<path d="M84.8757 37.1483C84.3328 32.2627 81.89 27.92 78.3621 24.1201C74.8335 20.5915 70.4917 18.1494 65.334 17.3346C63.9771 17.0636 63.4341 16.5206 62.8912 15.4348C60.9913 11.092 58.2775 7.56438 54.4777 5.12157C50.9491 2.95068 46.6073 1.59297 42.2646 1.05077C37.6509 0.779746 33.0362 1.59372 28.9654 3.49358C25.1656 5.39344 21.9089 7.83629 19.1952 11.364C16.4814 15.1638 14.5815 19.7775 13.7666 24.9341C13.4956 26.291 13.2237 26.8339 11.8668 27.6479C8.06697 29.2767 4.81029 32.5335 2.91038 36.6043C1.01052 40.6751 0.467571 45.2897 1.55346 49.3603C2.91038 54.7888 5.35328 58.5886 8.88188 60.7595C10.7817 61.8454 13.2246 60.4884 13.2246 58.3167C13.2246 57.2308 12.6816 56.4168 11.8677 55.8739C9.15389 54.245 7.52496 51.2602 7.25398 46.9174C6.44001 39.0471 10.7826 33.6183 18.9242 31.9896H19.1952V31.7186C19.1952 30.9046 19.4662 29.8187 19.4662 29.0048C19.7373 26.8339 20.0092 24.6621 20.2802 22.7622C22.4511 13.8058 29.7795 7.83438 39.2788 7.29218C49.321 6.74924 55.8346 11.092 58.5484 20.3203C59.0913 22.4912 60.1773 22.7631 62.077 23.0341C67.7765 23.5771 72.6621 26.0198 75.919 30.0906C78.9047 34.1614 80.2617 39.3189 79.1757 44.7465C78.3617 48.5463 77.5468 51.532 75.919 53.4319C75.3761 53.9749 74.8331 54.2459 74.2902 54.7889C73.4762 55.3318 72.9332 56.1458 72.9332 56.9597C72.9332 58.8596 75.9189 60.2164 77.5469 59.1306C80.2607 56.9597 82.1606 53.7021 83.2464 50.9883C84.0613 47.7333 85.4182 42.0338 84.8753 37.1482L84.8757 37.1483Z" fill="#B5C9FD" stroke="#B5C9FD"/>
</svg>
