<svg width="88" height="88" viewBox="0 0 88 88" fill="none" xmlns="http://www.w3.org/2000/svg">
<path d="M25.8166 20.1248L25.8177 20.1229C27.1725 17.723 29.7283 16.25 32.52 16.25H55.48C58.2717 16.25 60.8275 17.723 62.1823 20.1229L62.1834 20.1248L73.7034 40.1248L73.7038 40.1255C74.4016 41.3272 74.75 42.6439 74.75 44C74.75 45.3561 74.4016 46.6728 73.7038 47.8745L73.7034 47.8752L62.1834 67.8752L62.1823 67.8771C60.8275 70.277 58.2717 71.75 55.48 71.75H32.52C29.7291 71.75 27.1718 70.2775 25.7766 67.8751C25.7764 67.8749 25.7763 67.8747 25.7762 67.8745L14.2968 47.8755L14.2962 47.8745C13.5984 46.6728 13.25 45.3561 13.25 44C13.25 42.6439 13.5984 41.3272 14.2962 40.1255L14.2966 40.1248L25.8166 20.1248ZM64.8967 48.1246L65.1121 47.75H64.68H46.28H46.1363L46.064 47.8742L36.744 63.8742L36.5251 64.25H36.96H55.48H55.6246L55.6967 64.1246L64.8967 48.1246ZM39.5759 44.126L39.6494 44L39.5759 43.874L30.3359 28.034L30.1186 27.6614L29.9033 28.0353L20.7833 43.8753L20.7115 44L20.7833 44.1247L29.9033 59.9647L30.1186 60.3386L30.3359 59.966L39.5759 44.126ZM55.6967 23.8754L55.6246 23.75H55.48H36.96H36.5251L36.744 24.1258L46.064 40.1258L46.1363 40.25H46.28H64.68H65.1121L64.8967 39.8754L55.6967 23.8754ZM16 80.25C18.0619 80.25 19.75 81.9381 19.75 84C19.75 86.0619 18.0619 87.75 16 87.75H12C5.49807 87.75 0.25 82.5019 0.25 76V72C0.25 69.9381 1.93807 68.25 4 68.25C6.06193 68.25 7.75 69.9381 7.75 72V76C7.75 78.3381 9.66193 80.25 12 80.25H16ZM80.25 76V72C80.25 69.9381 81.9381 68.25 84 68.25C86.0619 68.25 87.75 69.9381 87.75 72V76C87.75 82.5019 82.5019 87.75 76 87.75H72C69.9381 87.75 68.25 86.0619 68.25 84C68.25 81.9381 69.9381 80.25 72 80.25H76C78.3381 80.25 80.25 78.3381 80.25 76ZM0.25 16V12C0.25 5.49807 5.49807 0.25 12 0.25H16C18.0619 0.25 19.75 1.93807 19.75 4C19.75 6.06193 18.0619 7.75 16 7.75H12C9.66193 7.75 7.75 9.66193 7.75 12V16C7.75 18.0619 6.06193 19.75 4 19.75C1.93807 19.75 0.25 18.0619 0.25 16ZM72 7.75C69.9381 7.75 68.25 6.06193 68.25 4C68.25 1.93807 69.9381 0.25 72 0.25H76C82.5019 0.25 87.75 5.49807 87.75 12V16C87.75 18.0619 86.0619 19.75 84 19.75C81.9381 19.75 80.25 18.0619 80.25 16V12C80.25 9.66193 78.3381 7.75 76 7.75H72Z" fill="#f8616c" stroke="white" stroke-width="0"/>
</svg>
