<svg viewBox="0 0 14 16" fill="none" xmlns="http://www.w3.org/2000/svg">
<path d="M13.4557 0.790685C13.5757 0.935874 13.5599 1.09057 13.481 1.20111C13.481 1.39369 13.4052 1.59886 13.3516 1.7725C13.2853 1.97768 13.2095 2.22074 13.0548 2.3786C13.0548 2.51435 12.9885 2.64693 12.8307 2.67848C11.7163 2.89943 11.126 3.76443 10.7882 4.82827C11.2176 4.85672 11.6469 4.88826 12.0636 4.92931C12.2404 4.94509 12.3351 5.0619 12.3572 5.18815C12.4109 5.26074 12.4393 5.34601 12.4204 5.44388C12.2878 6.04371 12.0542 6.57405 11.7858 7.12333C11.7322 7.2338 11.5901 7.30956 11.4702 7.3033C11.104 7.28752 10.7315 7.28119 10.3527 7.27175C10.2927 7.89052 10.2485 8.47768 10.179 8.95753C9.95491 10.5359 9.9107 12.4111 9.01732 13.797C8.25653 14.9745 7.00011 15.3849 5.67736 15.5901C4.2978 15.8016 2.01542 16.3035 0.692677 15.7448C0.563261 15.6911 0.455884 15.5932 0.459053 15.4385C0.471657 14.7251 0.850538 13.958 1.12197 13.3077C1.1788 13.1719 1.30821 13.134 1.40925 13.1688C1.43453 13.1593 1.45974 13.1562 1.49135 13.1562C2.94985 13.213 4.71449 13.4403 5.83523 12.2722C6.65918 11.4135 6.83598 10.0119 7.00011 8.88804C7.08531 8.31665 7.12953 7.73266 7.17374 7.14543C6.67812 7.09805 6.18566 7.02862 5.70898 6.92758C5.62688 6.94336 5.54485 6.91498 5.5038 6.82028C5.27334 6.27733 5.11865 5.74693 5.02712 5.15977C5.02395 5.13132 5.02712 5.10295 5.03028 5.0745C4.9924 4.96086 5.07133 4.803 5.21652 4.79356C5.2418 4.79356 5.26701 4.79039 5.28912 4.79039C5.32066 4.78406 5.34911 4.78406 5.38065 4.78722C6.05308 4.74934 6.74128 4.7304 7.43574 4.72723C7.52411 4.24738 7.64726 3.77387 7.82716 3.31296C8.54993 1.46311 11.6184 -1.40016 13.4557 0.790685Z" fill="#006AB0"/>
</svg>
