<svg width="20" height="20" viewBox="0 0 20 20" fill="none" xmlns="http://www.w3.org/2000/svg">
<path fill-rule="evenodd" clip-rule="evenodd" d="M3.06612 1.60039C2.99876 1.60039 2.94486 1.61778 2.91344 1.63583C2.90722 1.63941 2.90265 1.64255 2.89948 1.64497L1.86619 4.40039H18.1346L17.1013 1.64497C17.0981 1.64255 17.0936 1.63941 17.0873 1.63583C17.0559 1.61778 17.002 1.60039 16.9347 1.60039H3.06612ZM2.31551 0.59541C2.54432 0.463907 2.80752 0.400391 3.06612 0.400391H16.9347C17.1933 0.400391 17.4565 0.463907 17.6853 0.59541C17.9139 0.72681 18.1155 0.931868 18.2176 1.20416L19.5622 4.78972C19.6313 4.97398 19.6056 5.1804 19.4935 5.34215C19.3815 5.50389 19.1972 5.60039 19.0004 5.60039H1.00039C0.803606 5.60039 0.619328 5.50389 0.507239 5.34215C0.395149 5.1804 0.3695 4.97397 0.438597 4.78972L1.78318 1.20416C1.88529 0.931867 2.08687 0.726809 2.31551 0.59541Z" fill="#292C31"/>
<path fill-rule="evenodd" clip-rule="evenodd" d="M1.00039 4.40039C1.33176 4.40039 1.60039 4.66902 1.60039 5.00039V6.33372C1.60039 6.8575 1.83386 7.37638 2.27769 7.7709C2.72383 8.16746 3.34255 8.40039 4.00039 8.40039C4.65824 8.40039 5.27696 8.16746 5.7231 7.7709C6.16693 7.37638 6.40039 6.8575 6.40039 6.33372V5.00039C6.40039 4.66902 6.66902 4.40039 7.00039 4.40039C7.33176 4.40039 7.60039 4.66902 7.60039 5.00039V6.33372C7.60039 7.22443 7.20172 8.06211 6.52033 8.66779C5.84125 9.27142 4.93385 9.60039 4.00039 9.60039C3.06694 9.60039 2.15954 9.27142 1.48046 8.66779C0.799069 8.06211 0.400394 7.22443 0.400394 6.33372V5.00039C0.400394 4.66902 0.669023 4.40039 1.00039 4.40039Z" fill="#292C31"/>
<path fill-rule="evenodd" clip-rule="evenodd" d="M7.00039 4.40039C7.33176 4.40039 7.60039 4.66902 7.60039 5.00039V6.33372C7.60039 6.8575 7.83386 7.37638 8.27769 7.7709C8.72383 8.16746 9.34255 8.40039 10.0004 8.40039C10.6582 8.40039 11.277 8.16746 11.7231 7.7709C12.1669 7.37638 12.4004 6.8575 12.4004 6.33372V5.00039C12.4004 4.66902 12.669 4.40039 13.0004 4.40039C13.3318 4.40039 13.6004 4.66902 13.6004 5.00039V6.33372C13.6004 7.22443 13.2017 8.06211 12.5203 8.66779C11.8412 9.27142 10.9339 9.60039 10.0004 9.60039C9.06694 9.60039 8.15954 9.27142 7.48046 8.66779C6.79907 8.06211 6.40039 7.22443 6.40039 6.33372V5.00039C6.40039 4.66902 6.66902 4.40039 7.00039 4.40039Z" fill="#292C31"/>
<path fill-rule="evenodd" clip-rule="evenodd" d="M13.0004 4.40039C13.3318 4.40039 13.6004 4.66902 13.6004 5.00039V6.33372C13.6004 6.8575 13.8339 7.37638 14.2777 7.7709C14.7238 8.16746 15.3426 8.40039 16.0004 8.40039C16.6582 8.40039 17.277 8.16746 17.7231 7.7709C18.1669 7.37638 18.4004 6.8575 18.4004 6.33372V5.00039C18.4004 4.66902 18.669 4.40039 19.0004 4.40039C19.3318 4.40039 19.6004 4.66902 19.6004 5.00039V6.33372C19.6004 7.22443 19.2017 8.06211 18.5203 8.66779C17.8412 9.27142 16.9339 9.60039 16.0004 9.60039C15.0669 9.60039 14.1595 9.27142 13.4805 8.66779C12.7991 8.06211 12.4004 7.22443 12.4004 6.33372V5.00039C12.4004 4.66902 12.669 4.40039 13.0004 4.40039Z" fill="#292C31"/>
<path fill-rule="evenodd" clip-rule="evenodd" d="M7.40039 13.0004C7.40039 12.669 7.66902 12.4004 8.00039 12.4004H12.0004C12.3318 12.4004 12.6004 12.669 12.6004 13.0004V19.0004C12.6004 19.3318 12.3318 19.6004 12.0004 19.6004C11.669 19.6004 11.4004 19.3318 11.4004 19.0004V13.6004H8.60039V19.0004C8.60039 19.3318 8.33177 19.6004 8.00039 19.6004C7.66902 19.6004 7.40039 19.3318 7.40039 19.0004V13.0004Z" fill="#292C31"/>
<path fill-rule="evenodd" clip-rule="evenodd" d="M18.6004 18.0004C18.6004 18.884 17.8841 19.6004 17.0004 19.6004L3.00039 19.6004C2.11674 19.6004 1.40039 18.884 1.40039 18.0004L1.40039 9.00039C1.40039 8.66902 1.66902 8.40039 2.0004 8.40039C2.33176 8.40039 2.6004 8.66902 2.6004 9.00039L2.60039 18.0004C2.60039 18.2213 2.77948 18.4004 3.00039 18.4004L17.0004 18.4004C17.2213 18.4004 17.4004 18.2213 17.4004 18.0004V9.00039C17.4004 8.66902 17.669 8.40039 18.0004 8.40039C18.3318 8.40039 18.6004 8.66902 18.6004 9.00039V18.0004Z" fill="#292C31"/>
</svg>
