<svg width="20" height="20" viewBox="0 0 20 20" fill="none" xmlns="http://www.w3.org/2000/svg">
<path fill-rule="evenodd" clip-rule="evenodd" d="M0.458984 10.262C0.458984 4.83747 4.71124 0.405396 10 0.405396C15.2888 0.405396 19.5411 4.83747 19.5411 10.262C19.5411 12.2415 18.974 14.1059 17.7947 15.672C17.5954 15.9367 17.2192 15.9897 16.9545 15.7904C16.6898 15.591 16.6368 15.2148 16.8361 14.9501C17.8441 13.6116 18.3411 12.0065 18.3411 10.262C18.3411 5.46069 14.5872 1.6054 10 1.6054C5.41282 1.6054 1.65898 5.46069 1.65898 10.262C1.65898 11.9781 2.13998 13.5626 3.1674 14.9548C3.36416 15.2214 3.30753 15.5971 3.04091 15.7938C2.77428 15.9906 2.39863 15.934 2.20186 15.6673C1.01132 14.0541 0.458984 12.2157 0.458984 10.262Z" fill="#292C31"/>
<path fill-rule="evenodd" clip-rule="evenodd" d="M4.92951 9.94644C4.92951 7.22252 7.19356 4.87592 10 4.87592C12.8065 4.87592 15.0705 7.22252 15.0705 9.94644C15.0705 11.1427 14.7741 12.1613 14.0302 13.0213C13.8135 13.2719 13.4345 13.2993 13.1839 13.0825C12.9333 12.8658 12.9059 12.4869 13.1227 12.2362C13.635 11.6439 13.8706 10.9277 13.8706 9.94644C13.8706 7.873 12.1316 6.07592 10 6.07592C7.86849 6.07592 6.12951 7.873 6.12951 9.94644C6.12951 10.9122 6.35649 11.6206 6.88164 12.2412C7.09569 12.4941 7.06414 12.8727 6.81118 13.0868C6.55822 13.3008 6.17964 13.2693 5.96559 13.0163C5.21919 12.1342 4.92951 11.1312 4.92951 9.94644Z" fill="#292C31"/>
<path fill-rule="evenodd" clip-rule="evenodd" d="M9.78615 8.90859C10.0483 8.90221 10.2842 9.06678 10.3687 9.31498L13.6031 18.812C13.6655 18.9952 13.6356 19.1972 13.523 19.3546C13.4103 19.512 13.2286 19.6054 13.0351 19.6054H7.07439C6.88599 19.6054 6.70852 19.5169 6.59516 19.3664C6.48179 19.2159 6.4457 19.0209 6.49769 18.8398L9.22405 9.34285C9.2964 9.09083 9.52403 8.91497 9.78615 8.90859ZM9.84956 11.5129L7.87088 18.4054H12.1969L9.84956 11.5129Z" fill="#292C31"/>
</svg>
