<svg width="211" height="129" viewBox="0 0 211 129" fill="none" xmlns="http://www.w3.org/2000/svg">
<path d="M12.6592 128.167H182.867C183.043 128.167 183.215 128.131 183.38 128.061C183.532 127.996 183.666 127.899 183.785 127.783C183.794 127.773 183.806 127.77 183.815 127.762L210.553 100.14C210.566 100.126 210.57 100.107 210.583 100.094C210.689 99.9749 210.781 99.8427 210.842 99.6915C210.906 99.5322 210.935 99.3634 210.939 99.1934C210.939 99.1826 210.944 99.1731 210.944 99.1623V12.0512C210.944 5.40594 205.707 -0.000488281 199.27 -0.000488281L12.6592 -0.000488281C6.22197 -0.000488281 0.984848 5.40594 0.984848 12.0512V116.116C0.984848 122.761 6.22202 128.167 12.6592 128.167Z" fill="#B20101"/>
<path opacity="0.4" d="M91.4746 82.8431V41.2786C91.4746 37.033 88.3442 33.5791 84.4962 33.5791L28.2959 33.5799C24.4479 33.5799 21.3175 37.0339 21.3175 41.2794V82.8439C21.3175 87.0895 24.4479 90.5426 28.2959 90.5426L84.4962 90.5417C88.3442 90.5409 91.4746 87.0878 91.4746 82.8422V82.8431ZM68.3062 62.3624H89.7947V77.1663L70.7634 77.1672C69.4076 77.1672 68.3056 75.91 68.3056 74.3647L68.3062 62.3624ZM68.3062 48.6305C68.3062 47.0844 69.4091 45.8272 70.764 45.8272L89.7954 45.828V60.632H68.3068L68.3062 48.6305ZM44.4864 74.3647C44.4864 75.91 43.3834 77.1672 42.0286 77.1672H22.9972V62.3624H44.4857L44.4864 74.3647ZM22.9978 60.632V45.8281H42.0283C43.3841 45.8281 44.4862 47.0852 44.4862 48.6314V60.6329L22.9978 60.632ZM89.7989 41.279V44.0966H70.7642C68.4855 44.0966 66.6307 46.1303 66.6307 48.6303V50.8034H57.2345L57.2337 35.3107H84.4971C87.4214 35.3107 89.7998 37.9873 89.7998 41.279H89.7989ZM28.2972 35.3107H55.5584V50.8042H46.1623V48.6312C46.1623 46.1311 44.3082 44.0975 42.0288 44.0975H22.9941V41.2799C22.9941 37.9873 25.3725 35.3107 28.2967 35.3107H28.2972ZM22.9945 82.8427V78.8962H42.0292C44.3079 78.8962 46.1627 76.8626 46.1627 74.3634L46.1635 52.5333H66.6318V71.5322H56.8558C56.3927 71.5322 56.018 71.9192 56.018 72.3974L56.018 88.8101L28.298 88.811C25.3737 88.811 22.9953 86.1344 22.9953 82.8426L22.9945 82.8427ZM57.6937 88.811L57.6937 73.2634H66.6318V74.3643C66.6318 76.8644 68.4858 78.8971 70.7653 78.8971H89.8V82.8435C89.8 86.1343 87.4216 88.8118 84.4973 88.8118L57.6937 88.811Z" fill="white"/>
</svg>
