<svg width="80" height="90" viewBox="0 0 80 90" fill="none" xmlns="http://www.w3.org/2000/svg">
<path d="M12.3737 7.95505C11.8318 7.64545 11.2226 7.48931 10.6059 7.50194C9.98926 7.51456 9.38631 7.69553 8.85621 8.02709C8.32611 8.35864 7.88706 8.8294 7.58212 9.39319C7.27719 9.95697 7.11684 10.5944 7.1168 11.243V78.3599C7.11684 79.0085 7.27719 79.6459 7.58212 80.2097C7.88706 80.7735 8.32611 81.2442 8.85621 81.5758C9.38631 81.9074 9.98926 82.0883 10.6059 82.101C11.2226 82.1136 11.8318 81.9574 12.3737 81.6478L71.0257 48.0894C71.5883 47.768 72.0579 47.2929 72.3852 46.7142C72.7125 46.1355 72.8852 45.4747 72.8852 44.8014C72.8852 44.1282 72.7125 43.4674 72.3852 42.8887C72.0579 42.31 71.5883 41.8349 71.0257 41.5135L12.3737 7.95505ZM0 11.243C0 2.72621 8.66352 -2.68725 15.7756 1.37908L74.4275 34.9375C81.8575 39.1934 81.8575 50.4095 74.4275 54.6604L15.7756 88.2188C8.66352 92.2901 0 86.8717 0 78.3599V11.243Z" fill="#FBC4A3"/>
</svg>
